<?xml version="1.0" encoding="utf-8"?>
<!-- Generator: Adobe Illustrator 25.0.0, SVG Export Plug-In . SVG Version: 6.00 Build 0)  -->
<svg version="1.1" id="图层_1" xmlns="http://www.w3.org/2000/svg" xmlns:xlink="http://www.w3.org/1999/xlink" x="0px" y="0px"
	 viewBox="0 0 200 200" style="enable-background:new 0 0 200 200;" xml:space="preserve">
<path d="M162.1,32.9l37.6,115.5c1.1,3.3-0.6,6.9-3.9,8.1c-9.6,3.6-19.1,6.7-28.4,9.2l-14.3-53.1c-0.7-2.7-3.2-4.5-5.9-4.3l-1.1,0.2
	c-2.6,0.6-4.3,3.1-4.1,5.7l0.2,1l14.4,53.4c-16.7,4-33.7,6.2-50.8,6.7v-49.1c0.1-3.1-2.4-5.7-5.5-5.7c-2.8,0-5.2,2-5.7,4.7l-0.1,1
	v49h-0.9c-18.4-0.6-36.6-3.3-54.5-7.8l24.2-75.8c0.9-2.9-0.7-6.1-3.7-7c-2.6-0.8-5.4,0.3-6.7,2.7l-0.4,0.9l-24.4,76.2
	c-8.1-2.3-16-5-23.9-7.9c-3.3-1.2-5-4.8-3.9-8.1L37.9,32.9H162.1L162.1,32.9z M44.4,0h111.2c3.6,0,6.5,2.9,6.5,6.5v15.4H37.9V6.5
	C37.9,2.9,40.8,0,44.4,0L44.4,0z"/>
</svg>
