<?xml version="1.0" encoding="utf-8"?>
<!-- Generator: Adobe Illustrator 25.0.0, SVG Export Plug-In . SVG Version: 6.00 Build 0)  -->
<svg version="1.1" id="图层_1" xmlns="http://www.w3.org/2000/svg" xmlns:xlink="http://www.w3.org/1999/xlink" x="0px" y="0px"
	 viewBox="0 0 200 200" style="enable-background:new 0 0 200 200;" xml:space="preserve">
<path d="M73.2,0C76,13.4,83.3,22,99.8,22c15.7,0,23.1-7.7,26.1-19.9l0.5-2.1h15.7c3.4,0,6.6,1.4,8.8,3.9l0.1-0.2l45.3,47.5l0.4,0.4
	c4.3,5,3.8,12.5-1.1,16.9c0,0,0,0,0,0l-29.8,26c-1.1,1-2.3,1.7-3.7,2.2l6.7,71.6c0.6,6.5-4.1,12.2-10.5,13l-1.4,0.1H42.9
	c-6.5,0-11.8-5.2-12-11.7l0.1-1.4l6.7-71.6c-1.3-0.5-2.6-1.2-3.7-2.2l-29.8-26c-5-4.3-5.5-11.9-1.2-16.9c0.1-0.1,0.3-0.3,0.4-0.4
	L48.7,3.7l0.1,0.2c1.9-2.1,4.6-3.4,7.4-3.8L57.6,0L73.2,0L73.2,0z M105.8,79.4h-12c-3.1,0-5.7,2.4-5.8,5.6c0,2.8,2,5.2,4.7,5.7
	l1,0.1h12c3.1,0,5.7-2.5,5.7-5.7C111.5,81.9,109,79.4,105.8,79.4L105.8,79.4z M117.5,56.7H82.1c-3.1,0-5.7,2.4-5.8,5.6
	c0,2.8,2,5.2,4.7,5.7l1,0.1h35.4c3.1,0,5.7-2.5,5.7-5.7S120.7,56.7,117.5,56.7z"/>
</svg>
