<?xml version="1.0" encoding="utf-8"?>
<!-- Generator: Adobe Illustrator 25.0.0, SVG Export Plug-In . SVG Version: 6.00 Build 0)  -->
<svg version="1.1" id="图层_1" xmlns="http://www.w3.org/2000/svg" xmlns:xlink="http://www.w3.org/1999/xlink" x="0px" y="0px"
	 viewBox="0 0 200 200" style="enable-background:new 0 0 200 200;" xml:space="preserve">
<path d="M99.9,83.6c4.3-0.1,7.8-0.7,10.5-1.8c2.7-1,5.1-1.9,7.2-2.6c1.9-0.7,4.2-2.4,6.7-4.9s4.7-5.4,6.3-8.6
	c0.7-1.6,1.7-2.7,2.8-3.2c1.1-0.5,2.2-0.7,3.4-0.6s2.4,0.5,3.6,1.1c1.2,0.6,2.4,1.1,3.4,1.5c1,0.4,2.6,1.2,4.7,2.4
	c2.1,1.2,4.4,2.4,6.9,3.7s5.1,2.6,7.7,4c2.6,1.3,4.9,2.4,6.8,3.3c3.4,1.5,5.8,3.1,7.3,5c1.5,1.8,2.6,3.4,3.5,4.7
	c0.4,0.7,1.4,2.3,2.8,4.7s2.9,5.3,4.6,8.6c1.7,3.3,3.4,6.9,5.1,10.8c1.7,3.9,3,7.7,3.9,11.4c0.9,3.8,1.7,7.5,2.3,11.1
	c0.7,3.6,0.7,7.1,0.2,10.6c-0.5,3.5-1.8,6.8-4,10c-2.1,3.2-5.5,6.3-10,9.3c-4.7,2.9-10.5,5.6-17.3,8c-6.8,2.4-14.2,4.6-22.1,6.4
	c-7.9,1.8-15.8,3.3-23.8,4.3s-15.5,1.5-22.6,1.5c-7.1,0-14.6-0.5-22.5-1.5s-15.7-2.4-23.3-4.1c-7.6-1.7-14.6-3.7-21.2-6
	c-6.5-2.3-11.9-4.6-16-6.9s-7.4-4.7-9.8-7.1s-4.2-4.8-5.3-7.4s-1.7-5.4-1.9-8.4c-0.1-3-0.1-6.4,0.2-10.3c0.3-3.7,1.2-7.8,2.8-12.4
	s3.3-9,5.3-13.2c2-4.3,3.9-8.1,5.7-11.5s3.3-5.8,4.3-7.3c0.9-1.3,2.1-3.1,3.6-5.2c1.5-2.1,3.8-3.8,6.7-5c1.5-0.6,3.6-1.6,6.3-3
	c2.7-1.4,5.6-2.9,8.7-4.4c3.1-1.5,6.1-3.1,8.9-4.6c2.9-1.5,5.3-2.8,7.2-3.6c1.5-0.7,2.8-1.1,3.9-1c1.1,0.1,2,0.3,2.8,0.8
	c0.7,0.4,1.3,1,1.8,1.5c0.4,0.6,0.8,1.1,1.1,1.5c0.4,0.7,1.2,2,2.2,3.9s3.6,4.4,7.7,7.6c2.1,1.6,4.3,2.8,6.6,3.6
	c2.4,0.8,4.6,1.4,6.6,1.9C94.9,83.3,97.4,83.6,99.9,83.6L99.9,83.6z M100.1,0h1.8c0.9,0,2,0.2,3.4,0.7s3.1,1.2,5.2,2.3
	c2.1,1.1,4.4,2.8,7.1,5.2c2.8,2.5,5.4,5.3,7.9,8.5c2.5,3.2,4.7,6.2,6.6,9c1.9,2.9,3.4,5.3,4.5,7.4c1.1,2.1,1.7,3.3,1.9,3.7l0.7,2.2
	c0.4,1.2,0.7,2.4,0.7,3.5c0,1.2-0.3,2.4-0.9,3.5s-1.7,2.1-3.3,2.6c-1.8,0.6-3.3,0.7-4.6,0.4c-1.3-0.3-2.4-0.8-3.2-1.5
	c-0.8-0.7-1.4-1.6-1.8-2.5c-0.4-1-0.5-1.8-0.3-2.5c0.3-2.1,0.3-3.9,0.1-5.4c-0.2-1.5-1.1-3.8-2.5-6.7c-1.6-3.5-3.6-6.9-6-10.1
	c-2.4-3.2-4.3-5.7-6-7.5c-1.5-1.6-3.3-2.9-5.4-3.7c-2.1-0.9-4.2-1.3-6.1-1.3c-2.6,0.1-5,0.8-7.1,2.1c-2.1,1.2-3.8,2.5-5.3,3.9
	c-0.7,0.7-1.6,1.8-2.5,3.2c-1,1.4-1.9,2.9-3,4.5c-1,1.6-2,3.2-3,4.7c-1,1.5-1.7,2.8-2.1,3.6c-1,1.9-1.8,3.5-2.3,4.9
	c-0.5,1.3-0.6,3.6-0.3,6.8c0.3,3.2-0.4,5.4-2,6.5c-1.6,1.1-3.5,1.5-5.5,1.2c-2.1-0.1-3.9-1.1-5.5-2.9c-1.6-1.8-1.8-4.3-0.7-7.5
	c0.6-1.6,1.6-3.6,3-6c1.4-2.4,3-4.9,4.7-7.5c1.8-2.6,3.7-5.3,5.7-7.8s4-4.9,6-6.9c3.8-4.1,7.4-6.9,10.6-8.4C93.9,0.7,97.1,0,100.1,0
	L100.1,0z"/>
</svg>
