<?xml version="1.0" encoding="utf-8"?>
<!-- Generator: Adobe Illustrator 25.0.0, SVG Export Plug-In . SVG Version: 6.00 Build 0)  -->
<svg version="1.1" id="图层_1" xmlns="http://www.w3.org/2000/svg" xmlns:xlink="http://www.w3.org/1999/xlink" x="0px" y="0px"
	 viewBox="0 0 200 200" style="enable-background:new 0 0 200 200;" xml:space="preserve">
<path d="M170.5,61.2c-3.5,0.3-7.1,1.2-10.7,2.8c-3.2,1.5-6.7,3.6-10.4,6.6c-3.7,2.9-7.4,6.9-11,12c-3.3,5-6.6,9.7-9.6,14.2
	c-3.1,4.5-6,9.1-8.8,13.7c-2.8,4.6-5.7,9.3-8.5,14.1c-2.8,4.8-5.7,10-8.6,15.5c-3.8,7-8.8,12.1-15,15.3c-6.2,3.2-13.6,4.9-22.2,5
	c-5.2,0-10.4-0.4-15.6-1.3c-5.2-0.9-10.1-2.2-14.9-3.9c-4.7-1.7-9.1-3.9-13.2-6.3c-4.1-2.5-7.6-5.3-10.5-8.5
	c-7.7-8.4-11.5-16-11.5-22.6c0.1-6.6,4-11.6,11.7-15c3.5-1.6,7.1-2.9,10.8-3.8c3.7-0.9,7.1-1.7,10.2-2.3c3.6-0.6,7.1-1,10.5-1.3
	c2,2.5,4.7,4.5,7.9,6.1c2.8,1.5,6.2,2.6,10.4,3.4s9.2,0.7,15.2-0.3c4.8-0.7,9.1-2.1,12.8-4c3.7-2,7.2-4.4,10.5-7.3
	c3.3-2.9,6.5-6.3,9.6-10c3.1-3.8,6.4-7.9,9.9-12.2c2.3-2.8,5-6.3,8.1-10.6s6.2-8.8,9.4-13.5c3.2-4.7,6.4-9.5,9.6-14.3
	s6-9.2,8.5-13.1c2.6-4.1,5.1-7.4,7.3-9.9s4.4-4.5,6.3-5.9c2-1.4,3.9-2.3,5.7-2.7s3.6-0.7,5.4-0.7c1.2,0,2.9,1.1,5.1,3.3
	c2.3,2.2,4.5,5.1,6.7,8.6s4.2,7.6,5.9,12.1c1.7,4.5,2.6,9.1,2.6,13.8c0,3.9-0.3,7.2-0.9,9.7c-0.6,2.5-1.3,4.8-2.1,6.9
	c-0.8,2-1.6,4-2.3,5.9c-0.7,1.9-1.2,4.2-1.5,6.8c-0.1,1.9-0.4,5.4-0.8,10.4c-0.4,5-0.8,10.8-1.2,17.4c-0.4,6.6-0.9,13.5-1.4,20.8
	c-0.5,7.3-0.9,14.1-1.3,20.4c-0.4,6.3-0.7,11.8-1,16.4c-0.3,4.6-0.4,7.4-0.4,8.4h-8.5l-0.2-65.5c0-5,0.1-9.5,0.2-13.8
	c0.1-4.2,0-7.8-0.3-10.8c-0.4-3-1.1-5.3-2.3-7C174.8,62,173,61.2,170.5,61.2L170.5,61.2z"/>
</svg>
