<?xml version="1.0" encoding="utf-8"?>
<!-- Generator: Adobe Illustrator 25.0.0, SVG Export Plug-In . SVG Version: 6.00 Build 0)  -->
<svg version="1.1" id="图层_1" xmlns="http://www.w3.org/2000/svg" xmlns:xlink="http://www.w3.org/1999/xlink" x="0px" y="0px"
	 viewBox="0 0 200 200" style="enable-background:new 0 0 200 200;" xml:space="preserve">
<path d="M125.4,176.1c0,3.2-0.6,6.3-1.9,9.1c-1.2,2.9-2.9,5.4-5.1,7.5c-2.1,2.1-4.6,3.8-7.5,5.1c-2.9,1.2-5.9,1.9-9.1,1.9
	c-3.2,0-6.3-0.6-9.1-1.9c-2.9-1.2-5.3-2.9-7.4-5.1c-2.1-2.1-3.7-4.6-5-7.5c-1.2-2.9-1.9-5.9-1.9-9.1c0-6.6,2.2-12.2,6.7-16.6
	c4.5-4.5,10-6.7,16.6-6.7c3.2,0,6.3,0.6,9.1,1.9c2.9,1.2,5.4,2.9,7.5,5c2.1,2.1,3.8,4.5,5.1,7.4
	C124.8,169.8,125.4,172.9,125.4,176.1L125.4,176.1z M80,26.1c0,4.3-1.6,7.9-4.7,11c-3.2,3.1-6.9,4.6-11.1,4.6
	c-4.4,0-8.2-1.5-11.2-4.6c-3.1-3.1-4.6-6.8-4.6-11c0-4.4,1.5-8.2,4.6-11.2c3.1-3.1,6.8-4.6,11.2-4.6c4.3,0,8,1.5,11.1,4.6
	C78.4,17.9,80,21.7,80,26.1z M45,43c0,4.3-1.5,7.9-4.6,11c-3.1,3.1-6.8,4.6-11.2,4.6c-4.3,0-8-1.5-11.1-4.6s-4.7-6.8-4.7-11
	c0-4.4,1.6-8.2,4.7-11.2s6.9-4.6,11.1-4.6c4.4,0,8.2,1.5,11.2,4.6C43.4,34.9,45,38.6,45,43z M45,78.7c0,4.4-1.5,8.2-4.6,11.2
	c-3.1,3.1-6.8,4.6-11.2,4.6c-4.3,0-8-1.5-11.1-4.6c-3.2-3.1-4.7-6.8-4.7-11.2c0-4.3,1.6-8,4.7-11.1c3.2-3.2,6.9-4.7,11.1-4.7
	c4.4,0,8.2,1.6,11.2,4.7C43.4,70.8,45,74.5,45,78.7z M54,114.7c0,4.4-1.5,8.2-4.6,11.2c-3.1,3.1-6.8,4.6-11.2,4.6s-8.2-1.5-11.2-4.6
	c-3.1-3.1-4.6-6.8-4.6-11.2s1.5-8.2,4.6-11.2s6.8-4.6,11.2-4.6c4.4,0,8.2,1.5,11.2,4.6C52.4,106.5,54,110.2,54,114.7z M72.3,150.6
	c0,4.3-1.5,8-4.6,11.1c-3.1,3.2-6.8,4.7-11.2,4.7s-8.2-1.6-11.2-4.7c-3.1-3.2-4.6-6.9-4.6-11.1c0-4.4,1.5-8.2,4.6-11.2
	s6.8-4.6,11.2-4.6s8.2,1.5,11.2,4.6C70.7,142.4,72.3,146.2,72.3,150.6z M116.8,15.9c0,4.4-1.6,8.2-4.7,11.2
	c-3.2,3.1-6.9,4.6-11.1,4.6c-4.4,0-8.2-1.5-11.2-4.6s-4.6-6.8-4.6-11.2c0-4.3,1.5-7.9,4.6-11s6.8-4.6,11.2-4.6c4.3,0,8,1.5,11.1,4.6
	C115.2,8,116.8,11.7,116.8,15.9z M123,26.1c0,4.3,1.5,7.9,4.6,11c3.1,3.1,6.8,4.6,11.2,4.6s8.2-1.5,11.2-4.6c3.1-3.1,4.6-6.8,4.6-11
	c0-4.4-1.5-8.2-4.6-11.2c-3.1-3.1-6.8-4.6-11.2-4.6s-8.2,1.5-11.2,4.6C124.5,17.9,123,21.7,123,26.1z M157.8,43
	c0,4.3,1.6,7.9,4.7,11c3.2,3.1,6.9,4.6,11.1,4.6c4.4,0,8.2-1.5,11.2-4.6s4.6-6.8,4.6-11c0-4.4-1.5-8.2-4.6-11.2s-6.8-4.6-11.2-4.6
	c-4.3,0-8,1.5-11.1,4.6C159.3,34.9,157.8,38.6,157.8,43z M157.8,78.7c0,4.4,1.6,8.2,4.7,11.2c3.2,3.1,6.9,4.6,11.1,4.6
	c4.4,0,8.2-1.5,11.2-4.6c3.1-3.1,4.6-6.8,4.6-11.2c0-4.3-1.5-8-4.6-11.1c-3.1-3.2-6.8-4.7-11.2-4.7c-4.3,0-8,1.6-11.1,4.7
	C159.3,70.8,157.8,74.5,157.8,78.7z M149,114.7c0,4.4,1.5,8.2,4.6,11.2c3.1,3.1,6.8,4.6,11.2,4.6c4.3,0,7.9-1.5,11-4.6
	c3.1-3.1,4.6-6.8,4.6-11.2s-1.5-8.2-4.6-11.2c-3.1-3.1-6.8-4.6-11-4.6c-4.4,0-8.2,1.5-11.2,4.6S149,110.2,149,114.7z M130.7,150.6
	c0,4.3,1.5,8,4.6,11.1c3.1,3.2,6.8,4.7,11.2,4.7c4.3,0,7.9-1.6,11-4.7c3.1-3.2,4.6-6.9,4.6-11.1c0-4.4-1.5-8.2-4.6-11.2
	c-3.1-3.1-6.8-4.6-11-4.6c-4.4,0-8.2,1.5-11.2,4.6C132.2,142.4,130.7,146.2,130.7,150.6z"/>
</svg>
