<?xml version="1.0" encoding="utf-8"?>
<!-- Generator: Adobe Illustrator 25.0.0, SVG Export Plug-In . SVG Version: 6.00 Build 0)  -->
<svg version="1.1" id="图层_1" xmlns="http://www.w3.org/2000/svg" xmlns:xlink="http://www.w3.org/1999/xlink" x="0px" y="0px"
	 viewBox="0 0 200 200" style="enable-background:new 0 0 200 200;" xml:space="preserve">
<path d="M100.1,0c13.7,0,26.7,2.6,38.8,7.8c12.2,5.2,22.8,12.3,31.8,21.4c9.1,9.1,16.2,19.7,21.4,31.8s7.8,25.1,7.8,38.8
	c0,13.9-2.6,26.9-7.8,39c-5.2,12.1-12.3,22.7-21.4,31.7c-9.1,9.1-19.7,16.2-31.8,21.4c-12.2,5.2-25.1,7.8-38.8,7.8
	c-13.9,0-26.9-2.6-39.1-7.8c-12.2-5.2-22.8-12.3-31.8-21.4c-9.1-9.1-16.2-19.6-21.4-31.7C2.6,126.8,0,113.8,0,99.9
	C0,86.1,2.6,73.2,7.8,61s12.3-22.8,21.4-31.8S48.9,13,61,7.8S86.2,0,100.1,0z M157.2,113.7c3.9,0,7.2-1.4,10-4.2s4.1-6.2,4.1-10.1
	c0-3.9-1.4-7.2-4.1-10c-2.7-2.7-6-4.1-10-4.1h-42.6V42.8c0-3.9-1.4-7.3-4.2-10.1c-2.8-2.8-6.2-4.2-10.1-4.2c-3.9,0-7.2,1.4-10,4.2
	c-2.7,2.8-4.1,6.2-4.1,10.1v42.6H43.7c-3.9,0-7.2,1.4-10,4.1c-2.7,2.7-4.1,6-4.1,10c0,3.9,1.4,7.3,4.1,10.1c2.7,2.8,6,4.2,10,4.2
	h42.6v42.4c0,3.9,1.4,7.3,4.1,10.1c2.7,2.8,6,4.2,10,4.2c3.9,0,7.3-1.4,10.1-4.2c2.8-2.8,4.2-6.2,4.2-10.1v-42.4L157.2,113.7
	L157.2,113.7z"/>
</svg>
