<?xml version="1.0" encoding="utf-8"?>
<!-- Generator: Adobe Illustrator 25.0.0, SVG Export Plug-In . SVG Version: 6.00 Build 0)  -->
<svg version="1.0" id="图层_1" xmlns="http://www.w3.org/2000/svg" xmlns:xlink="http://www.w3.org/1999/xlink" x="0px" y="0px"
	 viewBox="0 0 200 200" style="enable-background:new 0 0 200 200;" xml:space="preserve">
<path d="M155.7,32.9L95.3,94.1l60.4,61.2c1.9,1.9,3.3,4,4.2,6.4c0.9,2.4,1.4,4.8,1.4,7.3c0,2.5-0.5,4.9-1.4,7.2
	c-0.9,2.3-2.3,4.4-4.2,6.3c-3.7,3.9-8.2,5.8-13.4,5.8c-5.2,0-9.7-1.9-13.4-5.8l-73-73.6c-1.9-1.9-3.3-4.1-4.4-6.7
	c-1.1-2.6-1.7-5.2-1.8-7.9c-0.1-2.7,0.2-5.2,1-7.7c0.8-2.5,2.1-4.5,4-6.1l74.2-74.8c3.7-3.7,8.2-5.6,13.4-5.6
	c5.2,0,9.7,1.9,13.4,5.6c1.9,1.9,3.3,4,4.2,6.4c0.9,2.4,1.4,4.8,1.4,7.3c0,2.5-0.5,4.9-1.4,7.2C159,28.9,157.6,31,155.7,32.9
	L155.7,32.9z"/>
</svg>
