<?xml version="1.0" encoding="utf-8"?>
<!-- Generator: Adobe Illustrator 25.0.0, SVG Export Plug-In . SVG Version: 6.00 Build 0)  -->
<svg version="1.0" id="图层_1" xmlns="http://www.w3.org/2000/svg" xmlns:xlink="http://www.w3.org/1999/xlink" x="0px" y="0px"
	 viewBox="0 0 200 200" style="enable-background:new 0 0 200 200;" xml:space="preserve">
<path d="M56.2,32.4c2.8,0,5.5,0.6,8.1,1.7c2.6,1.1,4.8,2.6,6.7,4.4c1.9,1.9,3.3,4,4.4,6.6s1.7,5.2,1.7,8c0,5.8-2,10.7-6.1,14.7
	c-4.1,4-9,6-14.8,6c-2.8,0-5.5-0.5-8-1.6c-2.5-1-4.7-2.5-6.6-4.4c-1.9-1.9-3.3-4.1-4.4-6.6s-1.7-5.1-1.7-8.1c0-2.8,0.6-5.5,1.7-8
	c1.1-2.5,2.6-4.7,4.4-6.6c1.9-1.9,4-3.3,6.6-4.4C50.7,33,53.4,32.4,56.2,32.4z M178.9,0c7.6,0,12.9,2.1,16.1,6.3s4.8,9.7,4.8,16.6
	v159.6c0,2.1-0.5,4.2-1.4,6.3c-1,2.1-2.3,4-4,5.7c-1.7,1.6-3.7,3-5.9,4c-2.2,1-4.7,1.6-7.3,1.6H17.3c-4.6,0-8.6-1.9-12.1-5.6
	c-3.5-3.7-5.2-8.1-5.2-13.3V18.4c0-5.3,1.5-9.7,4.4-13.2S11.3,0,16.2,0C16.2,0,178.9,0,178.9,0z M179.8,26c0-1.6-0.6-3.1-1.9-4.3
	c-1.3-1.3-2.8-1.9-4.6-1.9H26.2c-1.8,0-3.3,0.6-4.4,1.9C20.6,22.9,20,24.4,20,26v0.2v79.6c1.5,1.8,3.4,3.8,5.9,6.1
	c2.4,2.3,5.3,4.4,8.7,6.4c3.3,2,7.1,3.7,11.3,5.1c4.2,1.4,8.9,2.1,14.1,2.1c8,0,15-1.3,21.1-3.9s11.8-5.8,17.2-9.6
	c5.4-3.8,10.7-7.9,15.9-12.4c5.2-4.5,10.9-8.7,17-12.7c6.1-3.9,13.1-7.3,21-10c7.9-2.7,17-4.3,27.6-4.8L179.8,26L179.8,26z"/>
</svg>
