<?xml version="1.0" encoding="utf-8"?>
<!-- Generator: Adobe Illustrator 25.0.0, SVG Export Plug-In . SVG Version: 6.00 Build 0)  -->
<svg version="1.0" id="图层_1" xmlns="http://www.w3.org/2000/svg" xmlns:xlink="http://www.w3.org/1999/xlink" x="0px" y="0px"
	 viewBox="0 0 200.4 200" style="enable-background:new 0 0 200.4 200;" xml:space="preserve">
<path d="M64.1,20.2c3.6,0,6.6,1.2,9.1,3.7c2.5,2.5,3.8,5.5,3.8,9v51.4c0,3.6-1.3,6.6-3.8,9.1c-2.5,2.5-5.6,3.8-9.1,3.8H12.7
	c-3.6,0-6.6-1.3-9-3.8C1.2,90.9,0,87.9,0,84.3V32.9c0-3.6,1.2-6.6,3.7-9s5.5-3.7,9-3.7C12.7,20.2,64.1,20.2,64.1,20.2z M64.1,122.9
	c3.6,0,6.6,1.2,9.1,3.7c2.5,2.5,3.8,5.5,3.8,9v51.6c0,3.6-1.3,6.6-3.8,9c-2.5,2.5-5.6,3.7-9.1,3.7H12.7c-3.6,0-6.6-1.2-9-3.7
	s-3.7-5.5-3.7-9v-51.6c0-3.6,1.2-6.6,3.7-9c2.5-2.5,5.5-3.7,9-3.7H64.1z M167.1,122.9c3.6,0,6.6,1.2,9,3.7c2.5,2.5,3.7,5.5,3.7,9
	v51.6c0,3.6-1.2,6.6-3.7,9c-2.5,2.5-5.5,3.7-9,3.7h-51.4c-3.6,0-6.6-1.2-9.1-3.7c-2.5-2.5-3.8-5.5-3.8-9v-51.6c0-3.6,1.3-6.6,3.8-9
	c2.5-2.5,5.6-3.7,9.1-3.7H167.1z M195.7,42.8c2.7,2.7,4.1,6,4.1,9.7c0,3.7-1.4,6.9-4.1,9.5l-38.2,38.2c-2.7,2.7-5.9,4.1-9.6,4.1
	s-6.8-1.4-9.6-4.1l-38.2-38.2c-2.6-2.6-3.9-5.8-3.9-9.5c0-3.7,1.3-6.9,3.9-9.7l38.2-38.2c2.7-2.6,5.9-3.9,9.6-3.9s6.8,1.3,9.6,3.9
	L195.7,42.8z"/>
</svg>
