<?xml version="1.0" encoding="utf-8"?>
<!-- Generator: Adobe Illustrator 25.0.0, SVG Export Plug-In . SVG Version: 6.00 Build 0)  -->
<svg version="1.0" id="图层_1" xmlns="http://www.w3.org/2000/svg" xmlns:xlink="http://www.w3.org/1999/xlink" x="0px" y="0px"
	 viewBox="0 0 200 200" style="enable-background:new 0 0 200 200;" xml:space="preserve">
<path d="M198,174.2l-28.6-28.6c-2.6-2.6-6.9-2.6-9.5,0l-0.8,0.8c0,0-14.1-14-14.5-14.3c11.2-13.9,17.9-31.6,17.9-50.9
	C162.5,36.4,126.2,0,81.3,0S0,36.4,0,81.3c0,44.9,36.4,81.3,81.3,81.3c19.3,0,36.9-6.7,50.9-17.9c0.2,0.4,14.3,14.5,14.3,14.5
	l-0.8,0.8c-2.6,2.6-2.6,6.9,0,9.5l28.6,28.6c2.6,2.6,6.9,2.6,9.5,0l14.3-14.3C200.7,181.1,200.7,176.8,198,174.2z M81.3,131.2
	c-27.6,0-50-22.4-50-50c0-27.6,22.4-50,50-50c27.6,0,50,22.4,50,50C131.2,108.9,108.9,131.2,81.3,131.2z"/>
</svg>
