<?xml version="1.0" encoding="utf-8"?>
<!-- Generator: Adobe Illustrator 25.0.0, SVG Export Plug-In . SVG Version: 6.00 Build 0)  -->
<svg version="1.0" id="图层_1" xmlns="http://www.w3.org/2000/svg" xmlns:xlink="http://www.w3.org/1999/xlink" x="0px" y="0px"
	 viewBox="0 0 200 200" style="enable-background:new 0 0 200 200;" xml:space="preserve">
<path d="M134.6,104.7c0,4.1-0.8,7.9-2.3,11.5c-1.5,3.6-3.6,6.7-6.3,9.3c-2.6,2.6-5.7,4.7-9.2,6.3c-3.5,1.5-7.3,2.3-11.4,2.3
	c-4.1,0-7.9-0.8-11.4-2.3c-3.5-1.5-6.6-3.6-9.2-6.3c-2.6-2.6-4.7-5.7-6.3-9.3c-1.5-3.6-2.3-7.4-2.3-11.5c0-4,0.8-7.7,2.3-11.3
	c1.5-3.6,3.6-6.7,6.3-9.3c2.6-2.6,5.7-4.7,9.2-6.3c3.5-1.5,7.3-2.3,11.4-2.3c4.1,0,7.9,0.8,11.4,2.3c3.5,1.5,6.6,3.6,9.2,6.3
	c2.6,2.6,4.7,5.7,6.3,9.3C133.8,97,134.6,100.8,134.6,104.7z M25.9,163.1c-4.1,0-7.8-0.4-11-1.1s-5.9-2-8.1-3.7
	c-2.2-1.8-3.9-4.1-5-7.1c-1.2-3-1.8-6.8-1.8-11.3V65.6c0-8.2,1.9-13.9,5.8-17.1c3.9-3.2,10-4.8,18.3-4.8H61c2.3,0,4.3-0.4,5.8-1.3
	c1.5-0.9,2.8-2,3.7-3.5c1-1.5,1.8-3.2,2.5-5.2c0.7-2,1.5-4,2.4-6c1.5-3.8,4-7.1,7.7-9.9c3.7-2.8,7.8-4.2,12.5-4.2h20.4
	c5.4,0,9.8,1.5,13.3,4.5s5.7,6.2,6.9,9.5c1.6,4.4,3.7,8.2,6.4,11.3c2.6,3.1,5.4,4.7,8.3,4.7h27.9c6.4-0.1,11.6,1.6,15.4,5.3
	c3.8,3.7,5.7,9,5.7,16v75.3c0,7.5-2,13.1-5.9,17s-9.2,5.8-15.8,5.8L25.9,163.1L25.9,163.1z M104.9,58.8c-6.4,0-12.4,1.2-18,3.6
	c-5.6,2.4-10.4,5.7-14.5,9.9c-4.1,4.2-7.4,9-9.8,14.6c-2.4,5.6-3.6,11.5-3.6,17.8c0,6.4,1.2,12.4,3.6,18c2.4,5.6,5.7,10.4,9.8,14.5
	c4.1,4.1,8.9,7.4,14.5,9.8c5.6,2.4,11.6,3.6,18,3.6c6.3,0,12.2-1.2,17.8-3.6c5.6-2.4,10.4-5.7,14.5-9.8c4.1-4.1,7.4-8.9,9.8-14.5
	c2.4-5.6,3.6-11.6,3.6-18c0-6.3-1.2-12.2-3.6-17.8c-2.4-5.6-5.7-10.4-9.8-14.6c-4.1-4.2-8.9-7.5-14.5-9.9
	C117.2,60,111.2,58.8,104.9,58.8L104.9,58.8z M120.3,35.1c0-2.3-0.1-4.2-0.3-5.5c-0.2-1.3-1.7-2-4.5-2H97.3
	c-2.8-0.1-4.3,0.4-4.5,1.8c-0.2,1.3-0.3,3.2-0.3,5.7c-0.1,2.8,0,4.8,0.4,5.9c0.4,1.2,1.9,1.8,4.4,1.8h18.2c2.8,0,4.3-0.7,4.5-2
	C120.2,39.5,120.3,37.6,120.3,35.1z"/>
</svg>
